2018-01-22 00:15:15: 0: start segmenter: version=2.5 type=0 input= segment_filename=/system/data/data/org.acestream.engine/files/.ACEStream/.acestream_cache/_hls_773442e0e7c49fbe61fd47175019c1446bbc35c6/%d.ts manifest_path=/system/data/data/org.acestream.engine/files/.ACEStream/.acestream_cache/_hls_773442e0e7c49fbe61fd47175019c1446bbc35c6/index.m3u8 baseurl=/ace/c/773442e0e7c49fbe61fd47175019c1446bbc35c6/ seek_ts=0 start_sequence=0 chunk_duration=5 max_segments=7 transcode_audio=1 transcode_mp3=0 transcode_ac3=0 preferred_audio_language=
--------------------
2018-01-22 00:15:15: 0: set analyze duration: 20000000
2018-01-22 00:15:15: 0: avio_seek_func: offset=0 whence=0
2018-01-22 00:15:15: 0: avio_seek_func: missing seek func
2018-01-22 00:15:15: [mpegts @ 0x56fe2e10] Unable to seek back to the start
2018-01-22 00:15:18: 0: avio_seek_func: offset=0 whence=65536
2018-01-22 00:15:18: 0: avio_seek_func: missing seek func
2018-01-22 00:15:18: 0: avio_seek_func: offset=-1 whence=2
2018-01-22 00:15:18: 0: avio_seek_func: missing seek func
2018-01-22 00:15:18: 0: avio_seek_func: offset=0 whence=65536
2018-01-22 00:15:18: 0: avio_seek_func: missing seek func
2018-01-22 00:15:18: 0: avio_seek_func: offset=-1 whence=2
2018-01-22 00:15:18: 0: avio_seek_func: missing seek func
2018-01-22 00:15:18: 0: avio_seek_func: offset=0 whence=65536
2018-01-22 00:15:18: 0: avio_seek_func: missing seek func
2018-01-22 00:15:18: 0: avio_seek_func: offset=-1 whence=2
2018-01-22 00:15:18: 0: avio_seek_func: missing seek func
2018-01-22 00:15:18: Input #0, mpegts, from 'input':
  Duration: N/A, start: 9937.710100, bitrate: 134 kb/s
  Program 1 
    Stream #0:0[0x100]: Video: h264 (Main) ([27][0][0][0] / 0x001B), yuv420p, 1920x1080 [SAR 1:1 DAR 16:9], 25 fps, 25 tbr, 90k tbn, 50 tbc
    Stream #0:1[0x101]: Audio: aac ([15][0][0][0] / 0x000F), 44100 Hz, stereo, fltp, 134 kb/s
2018-01-22 00:15:18: 0: init: ic.name=mpegts duration=-9223372036854
2018-01-22 00:15:18: 0: got video stream: 0->0 codec=28
2018-01-22 00:15:18: 0: got audio stream: 1->1 codec=86018
2018-01-22 00:15:18: 0: stream map: 0->0
2018-01-22 00:15:18: 0: stream map: 1->1
2018-01-22 00:15:18: 0: on_media_info: container=mpegts duration=-2077252342 bitrate=134711 nb_streams=2
2018-01-22 00:15:18: 0: hls_mux_init: map: 0->0
2018-01-22 00:15:18: 0: hls_mux_init: map: 1->1
2018-01-22 00:15:18: Output #0, mpegts, to 'output':
    Stream #0:0: Video: h264 ([27][0][0][0] / 0x001B), yuv420p, 1920x1080 [SAR 1:1 DAR 16:9], q=2-31, 50 tbn, 50 tbc
    Stream #0:1: Audio: aac (LC) ([15][0][0][0] / 0x000F), 44100 Hz, stereo, fltp, 134 kb/s
2018-01-22 00:15:20: 0: segment created: seq=0 duration=7.20
2018-01-22 00:15:22: 0: segment created: seq=1 duration=4.80
2018-01-22 00:15:23: 0: segment created: seq=2 duration=4.80
2018-01-22 00:15:23: 0: segment created: seq=3 duration=4.80
2018-01-22 00:15:23: 0: segment created: seq=4 duration=4.80
2018-01-22 00:15:28: 0: segment created: seq=5 duration=4.80
2018-01-22 00:15:29: 0: segment created: seq=6 duration=4.80
